<svg width="45" height="45" viewBox="0 0 45 45" fill="none" xmlns="http://www.w3.org/2000/svg">
<path d="M19.7754 2.86524C16.3037 3.02345 13.8252 3.26075 11.0742 3.70899C9.21973 4.01661 8.96484 4.12208 8.96484 4.61427C8.96484 4.86915 9.31641 5.27345 9.53613 5.27345C9.61523 5.27345 10.2393 5.17677 10.9248 5.06251C17.5605 3.91993 25.7607 3.83204 32.7393 4.84278C37.3008 5.49317 41.0801 6.71485 42.7588 8.06837C43.708 8.82423 43.8926 9.50977 43.3828 10.2832C41.4229 13.2451 28.4062 15.3809 17.1387 14.5899C10.2744 14.1065 4.49121 12.6475 2.24121 10.8281C1.03711 9.86134 1.03711 9.03516 2.24121 8.05958C2.92676 7.50587 4.58789 6.70606 6.02051 6.23145C6.65332 6.0293 7.24219 5.792 7.33008 5.70411C7.54102 5.50196 7.5498 5.06251 7.33887 4.83399C7.10156 4.57032 6.72363 4.61427 5.37891 5.06251C2.6543 5.96778 0.808594 7.17188 0.237305 8.41993C0.0527344 8.80665 0.0439453 8.96485 0.0439453 10.7666V12.7002L0.290039 13.2012C1.08105 14.8096 3.94629 16.2774 8.19141 17.2617C11.1621 17.9473 15.0293 18.457 18.2373 18.5889C18.9668 18.6152 19.7666 18.6592 20.0127 18.6856L20.4697 18.7295L20.4961 24.917L20.5225 31.1045L20.7158 31.2979C20.9707 31.5527 21.3926 31.5527 21.6475 31.2979L21.8408 31.1045L21.8672 24.917L21.8936 18.7207H22.5H23.1152V27.2637C23.1152 31.9658 23.0801 35.8594 23.0449 35.9121C22.9307 36.0879 22.5703 36.2285 22.3682 36.1758C21.9375 36.0703 21.8848 35.9209 21.8848 34.8662C21.8848 33.627 21.7969 33.2754 21.4453 33.1348C21.2344 33.0469 21.1289 33.0469 20.918 33.1348C20.6191 33.2578 20.4785 33.627 20.4785 34.2861V34.6816L20.0215 34.7959C18.1055 35.2793 16.1719 36.5889 15.5566 37.8106C14.792 39.3486 15.6973 40.6318 18.1143 41.4316C21.7793 42.6445 27.2285 42.0733 29.0215 40.2979C29.54 39.7793 29.7334 39.375 29.7334 38.7861C29.7334 37.3096 27.5889 35.4727 25.1191 34.8311L24.5215 34.6816V26.71V18.7295L24.9873 18.6856C25.2334 18.6592 25.998 18.6152 26.6748 18.5889C28.1074 18.5274 30.375 18.334 31.8164 18.1494C33.5127 17.9297 35.9824 17.4815 36.1846 17.3496C36.6064 17.0859 36.4834 16.3301 36 16.207C35.877 16.1807 35.3584 16.2334 34.8311 16.3389C30.9551 17.0684 27.5186 17.3496 22.5439 17.3584C17.8594 17.3584 14.7393 17.1299 11.1621 16.5147C5.66895 15.583 1.9248 14.0098 1.40625 12.4277C1.22168 11.874 1.31836 11.8301 1.88965 12.2256C4.5791 14.0625 10.1865 15.3897 17.5342 15.9258C18.3604 15.9785 20.5928 16.0313 22.5 16.0313C24.4072 16.0313 26.6484 15.9785 27.4658 15.9258C34.8047 15.3897 40.4121 14.0625 43.1104 12.2256C43.3916 12.0322 43.6465 11.8916 43.6641 11.9092C43.7607 12.0059 43.5674 12.5859 43.3301 12.9024C42.7324 13.7373 41.2646 14.5371 38.9971 15.2842C38.1006 15.583 37.8809 15.7588 37.8809 16.1719C37.8809 16.4619 38.2148 16.7871 38.5049 16.7871C38.9004 16.7871 41.0713 15.9873 42.082 15.4775C42.9082 15.0557 43.8223 14.3613 44.2881 13.7988C44.9209 13.0342 45 12.709 45 10.7139C45 8.79786 44.9033 8.40235 44.2793 7.69044C42.1875 5.31739 36.2637 3.62989 27.7295 2.98829C26.4902 2.89161 21.0059 2.81251 19.7754 2.86524ZM20.7422 36.4307C21.0586 37.0723 21.7881 37.5293 22.5264 37.5293C23.0537 37.5293 23.7656 37.1514 24.0908 36.7119C24.2314 36.5186 24.3457 36.3076 24.3457 36.2373C24.3457 36.0264 24.5654 36.0176 25.1455 36.2109C26.543 36.6856 27.9668 37.6875 28.3096 38.4434C28.4854 38.8477 28.459 38.9707 28.0986 39.3486C27.6328 39.8496 26.499 40.2891 24.9609 40.5791C23.8184 40.79 21.208 40.79 20.0391 40.5791C18.0439 40.2188 16.6113 39.4805 16.6113 38.8125C16.6113 38.0303 18.0703 36.8438 19.7754 36.2461C20.0918 36.1318 20.3906 36.044 20.4521 36.044C20.5049 36.0352 20.6367 36.2109 20.7422 36.4307Z" fill="#3F7E4D"/>
</svg>
